:SAMPLES-PER-SECOND 30
:FULLY-SPECIFIED
:DEGREES
103
root  -47.4517 40.089 -15.1824 -1.2466 55.632 0.0593109
RightUpLeg  -22.9282 5.29861 -2.32904
RightLeg  30.283 -11.0379 -7.11353
RightFoot  -2.60605 -0.000645384 -0.221665
RightToes  0.00048216 0.542163 -0.142577
Spine  18.2489 -5.99515 -7.00651
Spine1  6.2195 -9.52953 8.24123
HEad  -3.76427 25.7346 -13.5806
LeftShoulder1  9.78937 -16.6988 -42.0615
LeftArm  35.7436 -35.6848 -60.3474
LeftForeArm  -5.59681 -22.0505 -5.54177
LeftHand  -0.25398 0.0180481 5.50724
RightShoulder  4.99247 9.47066 32.5374
RightArm  -17.1207 -23.9601 25.3341
RightForeArm  -21.8368 73.2235 47.1712
RightHand  -0.304412 -3.5999 -18.679
LeftUpLeg  5.16964 3.83752 -7.99674
LeftLeg  5.96774 33.2656 -4.44569
LeftFoot  -16.9469 0.330136 4.66098
LeftToes  1.06248e-005 4.65856e-005 -8.18499e-006
104
root  -46.3963 39.8737 -15.0171 -1.71306 58.416 -0.0290985
RightUpLeg  -24.2318 1.64163 0.129385
RightLeg  24.182 -10.1838 -5.21394
RightFoot  -1.06484 -0.0515409 0.497285
RightToes  0.00048216 0.542163 -0.142577
Spine  18.3328 -6.25467 -7.88014
Spine1  6.33904 -10.1555 9.14074
HEad  -4.26528 25.2978 -13.054
LeftShoulder1  9.86861 -16.7427 -42.328
LeftArm  36.7592 -36.3405 -60.9127
LeftForeArm  -5.7511 -22.1633 -5.51833
LeftHand  -0.25398 0.0180481 5.50724
RightShoulder  4.80931 9.1323 32.1185
RightArm  -18.562 -25.4469 26.6396
RightForeArm  -17.0036 74.2954 51.7543
RightHand  -0.391169 -3.11189 -19.2157
LeftUpLeg  7.4019 3.81859 -8.52073
LeftLeg  6.11022 30.9862 -4.23027
LeftFoot  -18.3367 0.401416 4.7589
LeftToes  1.06248e-005 4.65856e-005 -8.18499e-006
105
root  -45.2329 39.609 -14.8311 -2.02222 60.941 0.0653839
RightUpLeg  -25.1005 -3.98547 3.08448
RightLeg  17.5309 -9.57065 -3.3538
RightFoot  -0.557718 -0.133335 1.37301
RightToes  0.00048216 0.542163 -0.142577
Spine  18.2668 -6.52533 -8.54858
Spine1  6.58474 -10.6842 9.71534
HEad  -4.4314 24.7234 -12.4664
LeftShoulder1  9.92086 -16.7352 -42.5846
LeftArm  37.2059 -36.6737 -61.3785
LeftForeArm  -5.51338 -22.5428 -5.40378
LeftHand  -0.25398 0.0180481 5.50724
RightShoulder  4.60578 8.6353 32.0003
RightArm  -19.5385 -26.746 27.8021
RightForeArm  -11.4647 75.1868 56.4708
RightHand  -0.388577 -3.1058 -19.003
LeftUpLeg  9.70084 3.76748 -9.12492
LeftLeg  6.52268 28.9206 -3.84623
LeftFoot  -19.6638 0.482602 5.00209
LeftToes  1.06248e-005 4.65856e-005 -8.18499e-006
106
root  -43.9603 39.319 -14.6155 -2.03812 63.1011 0.396942
RightUpLeg  -25.6259 -6.88968 4.55574
RightLeg  11.1474 -10.8941 -0.491351
RightFoot  -0.391947 -0.22074 2.27448
RightToes  0.00048216 0.542163 -0.142577
Spine  17.8531 -6.7411 -9.12351
Spine1  6.90583 -11.102 10.1329
HEad  -3.86964 23.8573 -11.6549
LeftShoulder1  10.0055 -16.7701 -42.8932
LeftArm  37.3155 -36.5654 -61.5551
LeftForeArm  -5.12057 -23.1917 -5.29758
LeftHand  -0.25398 0.0180481 5.50724
RightShoulder  4.41471 8.13182 31.9985
RightArm  -20.3927 -28.1816 28.9058
RightForeArm  -5.87056 75.8766 61.0027
RightHand  -0.383318 -3.0646 -18.4671
LeftUpLeg  12.327 3.61936 -9.83911
LeftLeg  6.43615 27.279 -3.638
LeftFoot  -20.7404 0.550427 5.17701
LeftToes  1.06248e-005 4.65856e-005 -8.18499e-006
107
root  -42.5689 38.9693 -14.3632 -1.89211 64.7541 0.999207
RightUpLeg  -25.6498 -4.09999 3.37328
RightLeg  6.52229 -14.7791 2.46216
RightFoot  -0.710895 -0.27909 2.95345
RightToes  0.00048216 0.542163 -0.142577
Spine  17.3345 -6.83234 -9.88979
Spine1  7.12968 -11.414 10.6423
HEad  -3.05171 23.2201 -10.8427
LeftShoulder1  10.1048 -16.7946 -43.29
LeftArm  37.234 -36.2601 -61.458
LeftForeArm  -4.73207 -23.9263 -5.34242
LeftHand  -0.25398 0.0180481 5.50724
RightShoulder  4.3233 7.93625 31.848
RightArm  -21.4194 -29.9042 29.9377
RightForeArm  -0.580032 76.4589 65.9428
RightHand  -0.596149 -1.8313 -19.0345
LeftUpLeg  15.2617 3.65095 -10.5208
LeftLeg  6.35614 25.9467 -3.51263
LeftFoot  -21.9599 0.570186 4.72156
LeftToes  1.06248e-005 4.65856e-005 -8.18499e-006
108
root  -41.0567 38.5847 -14.0786 -2.11736 66.184 1.38994
RightUpLeg  -25.7522 -2.73496 3.42206
RightLeg  5.60555 -13.8417 2.86924
RightFoot  -1.72608 -0.317476 3.62455
RightToes  0.00048216 0.542163 -0.142577
Spine  17.0571 -6.97867 -10.7706
Spine1  7.2826 -11.8762 11.3803
HEad  -2.56967 23.0538 -10.4029
LeftShoulder1  10.1276 -16.7012 -43.6069
LeftArm  36.9934 -36.0133 -61.2545
LeftForeArm  -4.28649 -24.6937 -5.5
LeftHand  -0.25398 0.0180481 5.50724
RightShoulder  4.3237 8.00946 31.6097
RightArm  -22.2805 -31.57 30.6758
RightForeArm  5.16291 77.0023 72.4392
RightHand  -1.03081 0.303468 -20.9168
LeftUpLeg  18.2615 4.07704 -10.718
LeftLeg  7.11366 24.2826 -3.28465
LeftFoot  -23.0882 0.521489 3.71855
LeftToes  1.06248e-005 4.65856e-005 -8.18499e-006
109
root  -39.4308 38.2677 -13.7794 -3.17561 67.9278 0.710602
RightUpLeg  -25.9117 -3.61922 4.81703
RightLeg  8.30309 -10.2589 1.52848
RightFoot  -2.06553 -0.295054 3.44579
RightToes  0.00048216 0.542163 -0.142577
Spine  16.8297 -7.47073 -11.1897
Spine1  7.51133 -12.7492 12.2694
HEad  -2.4901 23.1318 -10.4276
LeftShoulder1  10.0884 -16.5444 -43.7882
LeftArm  36.5438 -35.6445 -61.0665
LeftForeArm  -3.64471 -25.6049 -5.6751
LeftHand  -0.25398 0.0180481 5.50724
RightShoulder  4.26651 7.92742 31.3764
RightArm  -22.4111 -32.9922 30.923
RightForeArm  12.212 77.4103 80.5108
RightHand  -1.36366 1.64954 -22.4847
LeftUpLeg  20.9753 4.68485 -10.022
LeftLeg  8.6766 21.8996 -2.94429
LeftFoot  -23.244 0.414159 2.63403
LeftToes  1.06248e-005 4.65856e-005 -8.18499e-006
110
root  -37.683 38.0957 -13.5058 -5.65979 69.8316 -1.99924
RightUpLeg  -26.1238 -5.60449 6.93122
RightLeg  12.3325 -7.18562 -0.116611
RightFoot  0.267156 -0.117505 1.28335
RightToes  0.00048216 0.542163 -0.142577
Spine  16.3583 -8.33295 -10.2045
Spine1  7.63199 -13.7579 12.9264
HEad  -2.49497 23.0339 -10.727
LeftShoulder1  10.1063 -16.4731 -44.0355
LeftArm  35.9371 -34.7844 -60.9848
LeftForeArm  -2.80168 -26.6668 -5.87796
LeftHand  -0.25398 0.0180481 5.50724
RightShoulder  4.08554 7.52949 31.0787
RightArm  -21.8135 -34.5603 30.5672
RightForeArm  19.8027 77.569 88.5072
RightHand  -1.35602 1.52316 -22.7156
LeftUpLeg  23.2981 5.60974 -8.17754
LeftLeg  10.2252 18.7973 -2.60667
LeftFoot  -22.0502 0.217363 0.899447
LeftToes  1.06248e-005 4.65856e-005 -8.18499e-006
111
root  -35.8262 38.0492 -13.3021 -9.6701 70.9024 -6.59819
RightUpLeg  -26.5459 -6.6958 8.892
RightLeg  16.6116 -5.6383 -1.62288
RightFoot  4.51528 0.357214 -2.32443
RightToes  0.00048216 0.542163 -0.142577
Spine  15.8888 -9.19113 -7.45962
Spine1  7.34135 -14.2665 12.9574
HEad  -2.54568 22.7092 -11.1925
LeftShoulder1  10.2059 -16.5066 -44.4136
LeftArm  35.5345 -33.5492 -61.0847
LeftForeArm  -2.00346 -27.7459 -6.09151
LeftHand  -0.25398 0.0180481 5.50724
RightShoulder  3.9247 7.19961 30.7146
RightArm  -20.9808 -36.4964 29.6169
RightForeArm  25.8386 77.539 94.3735
RightHand  -1.24198 1.05147 -22.32
LeftUpLeg  25.282 9.5994 -4.28006
LeftLeg  12.0513 12.9484 -1.95218
LeftFoot  -19.5931 -0.0587904 -2.51972
LeftToes  1.06248e-005 4.65856e-005 -8.18499e-006
112
root  -33.938 38.0546 -13.1593 -13.2219 70.6991 -10.6458
RightUpLeg  -26.8179 -5.82198 9.63079
RightLeg  21.0456 -5.42224 -2.56986
RightFoot  6.7799 0.903664 -5.42121
RightToes  0.00048216 0.542163 -0.142577
Spine  15.7945 -9.6738 -4.26487
Spine1  6.75609 -14.139 12.6112
HEad  -2.88829 22.5629 -11.7916
LeftShoulder1  10.2766 -16.5555 -44.6222
LeftArm  35.5901 -32.5728 -61.2713
LeftForeArm  -1.4249 -28.693 -6.28935
LeftHand  -0.25398 0.0180481 5.50724
RightShoulder  3.92512 7.27716 30.4511
RightArm  -20.2433 -38.2543 28.4027
RightForeArm  28.847 77.4787 97.1972
RightHand  -1.29516 1.33823 -22.2964
LeftUpLeg  26.0861 17.5842 1.28124
LeftLeg  16.5214 4.08131 -0.41822
LeftFoot  -14.8088 -0.100688 -6.66219
LeftToes  1.06248e-005 4.65856e-005 -8.18499e-006
113
root  -32.1713 38.115 -13.0211 -15.1115 70.1067 -13.0211
RightUpLeg  -26.4814 -4.98683 9.65068
RightLeg  24.8329 -5.38748 -2.93887
RightFoot  5.09207 1.02658 -6.85562
RightToes  0.00048216 0.542163 -0.142577
Spine  16.0209 -9.86366 -2.14458
Spine1  6.41545 -13.9473 12.6929
HEad  -3.43168 22.8397 -12.2714
LeftShoulder1  10.2552 -16.6037 -44.4126
LeftArm  36.1712 -32.2996 -61.3316
LeftForeArm  -1.23804 -29.3583 -6.44241
LeftHand  -0.25398 0.0180481 5.50724
RightShoulder  4.01407 7.54835 30.3612
RightArm  -19.6832 -39.2239 27.5828
RightForeArm  29.4957 77.4647 97.7246
RightHand  -1.42551 1.96133 -22.4914
LeftUpLeg  23.1617 21.1885 3.93678
LeftLeg  25.331 0.875055 1.10145
LeftFoot  -5.48102 0.443046 -8.49049
LeftToes  1.06248e-005 4.65856e-005 -8.18499e-006
114
root  -30.6552 38.1939 -12.861 -17.1304 70.1303 -15.851
RightUpLeg  -25.9378 -5.58937 10.0438
RightLeg  27.5602 -5.2639 -3.21095
RightFoot  1.55734 0.813177 -7.07539
RightToes  0.00048216 0.542163 -0.142577
Spine  16.2815 -10.1849 -0.780448
Spine1  6.61649 -14.1129 13.4853
HEad  -3.69065 23.2206 -12.2791
LeftShoulder1  10.198 -16.6759 -43.9852
LeftArm  37.2305 -32.5851 -61.1955
LeftForeArm  -1.55724 -29.5989 -6.51903
LeftHand  -0.25398 0.0180481 5.50724
RightShoulder  4.03287 7.5969 30.3722
RightArm  -19.3919 -39.5158 27.5767
RightForeArm  29.7134 77.4754 97.5455
RightHand  -1.45519 2.15744 -22.3743
LeftUpLeg  15.9688 19.6418 4.08251
LeftLeg  37.2505 2.55503 2.45646
LeftFoot  6.53498 1.09705 -7.26074
LeftToes  1.06248e-005 4.65856e-005 -8.18499e-006
115
root  -29.2914 38.315 -12.6959 -19.5137 70.587 -19.1047
RightUpLeg  -25.066 -6.7518 10.4466
RightLeg  29.0788 -5.13222 -3.3271
RightFoot  -1.32591 0.584068 -6.74826
RightToes  0.00048216 0.542163 -0.142577
Spine  16.4533 -10.5396 0.415946
Spine1  6.97255 -14.3777 14.3672
HEad  -3.40157 23.2669 -11.8004
LeftShoulder1  10.1573 -16.6979 -43.7495
LeftArm  38.4099 -32.9975 -60.9803
LeftForeArm  -2.0557 -29.4537 -6.50955
LeftHand  -0.25398 0.0180481 5.50724
RightShoulder  3.97295 7.40427 30.4655
RightArm  -19.4426 -39.584 28.2075
RightForeArm  30.0861 77.4894 97.3416
RightHand  -1.4399 2.12989 -22.225
LeftUpLeg  7.70362 18.4029 4.57768
LeftLeg  48.7381 3.41013 4.60874
LeftFoot  13.9934 1.2488 -5.91079
LeftToes  1.06248e-005 4.65856e-005 -8.18499e-006
116
root  -27.8468 38.641 -12.5417 -19.6821 70.9541 -19.6237
RightUpLeg  -22.7499 -7.83616 9.6795
RightLeg  28.6933 -4.45078 -2.88689
RightFoot  -3.16789 0.395172 -5.81367
RightToes  0.00048216 0.542163 -0.142577
Spine  16.6239 -10.5201 0.684881
Spine1  7.00311 -14.3585 14.8046
HEad  -2.77867 22.9529 -11.1962
LeftShoulder1  10.1081 -16.5928 -43.7667
LeftArm  38.9048 -33.1624 -60.8189
LeftForeArm  -2.03503 -29.1862 -6.44233
LeftHand  -0.25398 0.0180481 5.50724
RightShoulder  3.94269 7.27244 30.6316
RightArm  -19.6827 -39.5702 29.0609
RightForeArm  29.3683 77.5227 96.2486
RightHand  -1.49572 2.3487 -22.4353
LeftUpLeg  0.287543 18.1001 4.53648
LeftLeg  57.3274 4.15381 7.45548
LeftFoot  13.8308 0.995781 -4.8125
LeftToes  1.06248e-005 4.65856e-005 -8.18499e-006
117
root  -26.3553 39.0941 -12.395 -16.8309 71.1419 -16.7308
RightUpLeg  -19.4126 -8.99444 7.74462
RightLeg  27.0309 -3.23903 -2.04616
RightFoot  -4.68343 0.236102 -4.60273
RightToes  0.00048216 0.542163 -0.142577
Spine  16.804 -10.1336 -0.224313
Spine1  6.83524 -14.0975 14.9475
HEad  -2.17222 22.5016 -10.7787
LeftShoulder1  10.0223 -16.4457 -43.7132
LeftArm  38.1527 -32.9086 -60.7506
LeftForeArm  -1.23871 -29.036 -6.36326
LeftHand  -0.25398 0.0180481 5.50724
RightShoulder  3.98372 7.34595 30.7639
RightArm  -19.7878 -39.4538 29.869
RightForeArm  26.9012 77.577 93.5003
RightHand  -1.55981 2.6228 -22.605
LeftUpLeg  -6.20097 18.6298 3.56837
LeftLeg  61.9392 4.41228 9.47927
LeftFoot  9.54644 0.564271 -3.3721
LeftToes  1.06248e-005 4.65856e-005 -8.18499e-006
